<svg width="258" height="45" viewBox="0 0 258 45" fill="none" xmlns="http://www.w3.org/2000/svg">
<path d="M34.3052 3.94208H1V4.99718H33.2801L34.3052 3.94208ZM253.632 0.5C254.365 0.5 255.08 0.690266 255.786 1.0708C256.484 1.44268 257.027 1.98753 257.414 2.68805C257.81 3.39722 258 4.13234 258 4.8934C258 5.65446 257.81 6.38093 257.423 7.08146C257.044 7.78198 256.501 8.31818 255.812 8.70736C255.114 9.09654 254.39 9.28681 253.632 9.28681C252.874 9.28681 252.15 9.09654 251.453 8.70736C250.763 8.31818 250.221 7.78198 249.833 7.08146C249.454 6.38093 249.256 5.65446 249.256 4.8934C249.256 4.13234 249.454 3.39722 249.842 2.68805C250.238 1.98753 250.781 1.44268 251.479 1.0708C252.185 0.690266 252.9 0.5 253.632 0.5ZM253.632 1.22647C253.021 1.22647 252.418 1.38214 251.84 1.70213C251.255 2.02212 250.807 2.47184 250.471 3.05994C250.143 3.64803 249.98 4.26207 249.98 4.8934C249.98 5.53339 250.143 6.13878 250.462 6.71822C250.789 7.29767 251.237 7.74739 251.815 8.07603C252.4 8.39602 253.003 8.56034 253.632 8.56034C254.261 8.56034 254.864 8.39602 255.45 8.07603C256.027 7.74739 256.475 7.29767 256.803 6.71822C257.121 6.13878 257.276 5.53339 257.276 4.8934C257.276 4.26207 257.113 3.64803 256.785 3.05994C256.467 2.47184 256.01 2.02212 255.424 1.70213C254.838 1.38214 254.244 1.22647 253.632 1.22647ZM251.711 7.32361V2.60157H253.331C253.882 2.60157 254.287 2.64481 254.528 2.7313C254.778 2.81778 254.976 2.9648 255.123 3.18966C255.269 3.40587 255.347 3.63073 255.347 3.88154C255.347 4.21883 255.226 4.52152 254.976 4.78097C254.726 5.03178 254.408 5.1788 253.994 5.21339C254.158 5.28258 254.296 5.36042 254.399 5.4642C254.589 5.64582 254.812 5.95716 255.088 6.39823L255.665 7.32361H254.744L254.321 6.57985C253.994 5.99175 253.727 5.61987 253.529 5.47285C253.391 5.36907 253.184 5.31718 252.917 5.31718H252.469V7.32361H251.711ZM252.469 4.65989H253.391C253.839 4.65989 254.141 4.59936 254.296 4.46098C254.459 4.33125 254.537 4.15829 254.537 3.94208C254.537 3.8037 254.502 3.68262 254.425 3.57019C254.347 3.45776 254.235 3.37993 254.097 3.32804C253.96 3.2675 253.71 3.24155 253.339 3.24155H252.469V4.65989ZM115.234 43.5H116.285V27.362H135.306L144.593 43.5H145.799L136.461 27.362C143.017 27.0939 147.901 22.0346 147.901 15.6521C147.901 9.21762 142.707 3.94208 136.245 3.94208H115.234L116.285 4.99718H136.245C141.862 4.99718 146.85 9.74517 146.85 15.6521C146.85 21.6108 142.121 26.3069 136.245 26.3069C129.242 26.3069 122.238 26.3069 115.234 26.3069V43.5ZM233.956 3.94208L215.64 43.5H216.795L222.67 30.7868H246.551L252.478 43.5H253.632L247.128 29.7317H223.144L235.11 3.94208H233.956ZM190.407 3.94208L208.938 43.5L209.464 42.2892L191.51 3.94208H190.407ZM218.018 23.8767H219.121L228.356 3.94208H227.253L218.018 23.8767ZM153.501 23.721C153.501 13.3343 161.84 4.94529 172.178 4.94529C182.464 4.94529 190.761 13.5937 190.761 23.721C190.761 33.9002 182.309 42.4968 172.075 42.4968V43.5C182.887 43.5 191.76 34.6354 191.76 23.721C191.76 12.8067 182.99 3.94208 172.178 3.94208C161.315 3.94208 152.502 12.8067 152.502 23.721H153.501ZM78.8874 43.5H79.9384V27.362H98.9515L108.238 43.5H109.453L100.106 27.362C106.67 27.0939 111.547 22.0346 111.547 15.6521C111.547 9.21762 106.352 3.94208 99.8992 3.94208H78.8874L79.9384 4.99718H99.8992C105.516 4.99718 110.496 9.74517 110.496 15.6521C110.496 21.6108 105.775 26.3069 99.8992 26.3069C92.8952 26.3069 85.8913 26.3069 78.8874 26.3069V43.5ZM35.0289 23.721C35.0289 13.3343 43.3681 4.94529 53.706 4.94529C64.0008 4.94529 72.2884 13.5937 72.2884 23.721C72.2884 33.9002 63.8372 42.4968 53.6026 42.4968V43.5C64.4144 43.5 73.2877 34.6354 73.2877 23.721C73.2877 12.8067 64.5177 3.94208 53.706 3.94208C42.8426 3.94208 34.0296 12.8067 34.0296 23.721H35.0289ZM23.0714 22.1903L3.40356 42.4449H33.2801V43.5H1L21.6758 22.1903H23.0714Z" fill="black"/>
<path fill-rule="evenodd" clip-rule="evenodd" d="M0.749954 3.69189H34.8967L33.3857 5.247H0.749954V3.69189ZM1.24995 4.19189V4.747H33.1744L33.7137 4.19189H1.24995ZM33.7795 23.7209C33.7795 12.6697 42.7032 3.69189 53.706 3.69189C64.6582 3.69189 73.5377 12.6709 73.5377 23.7209C73.5377 34.7725 64.5531 43.7498 53.6026 43.7498H53.3526V42.2466H53.6026C63.697 42.2466 72.0383 33.764 72.0383 23.7209C72.0383 13.7268 63.8579 5.19511 53.706 5.19511C43.5074 5.19511 35.2789 13.4709 35.2789 23.7209V23.9709H33.7795V23.7209ZM34.2811 23.4709C34.4144 12.8083 43.065 4.19189 53.706 4.19189C64.3772 4.19189 73.0377 12.9422 73.0377 23.7209C73.0377 34.4135 64.412 43.1128 53.8526 43.2482V42.7449C64.1144 42.6064 72.5383 33.9531 72.5383 23.7209C72.5383 13.4603 64.1437 4.69511 53.706 4.69511C43.3118 4.69511 34.913 13.063 34.7804 23.4709H34.2811ZM78.2855 3.69189H99.8991C106.492 3.69189 111.796 9.08137 111.796 15.6519C111.796 22.0378 107.014 27.1255 100.526 27.5886L109.887 43.7498H108.094L98.8069 27.6118H80.1884V43.7498H78.6374V26.0567H99.8991C105.636 26.0567 110.245 21.4731 110.245 15.6519C110.245 9.88569 105.381 5.247 99.8991 5.247H79.8345L78.2855 3.69189ZM79.4893 4.19189H99.8991C106.212 4.19189 111.296 9.35351 111.296 15.6519C111.296 21.8972 106.529 26.8493 100.096 27.1121L99.6821 27.1289L109.019 43.2498H108.383L99.0961 27.1118H79.6884V43.2498H79.1374V26.5567H99.8991C105.913 26.5567 110.745 21.7482 110.745 15.6519C110.745 9.6043 105.651 4.747 99.8991 4.747H80.0422L79.4893 4.19189ZM114.632 3.69189H136.245C142.847 3.69189 148.151 9.08125 148.151 15.6519C148.151 22.0378 143.361 27.1254 136.881 27.5886L146.233 43.7498H144.449L135.162 27.6118H116.535V43.7498H114.984V26.0567H136.245C141.982 26.0567 146.6 21.4728 146.6 15.6519C146.6 9.88595 141.727 5.247 136.245 5.247H116.181L114.632 3.69189ZM115.836 4.19189H136.245C142.567 4.19189 147.651 9.35363 147.651 15.6519C147.651 21.8971 142.876 26.8493 136.451 27.1121L136.037 27.129L145.366 43.2498H144.738L135.451 27.1118H116.035V43.2498H115.484V26.5567H136.245C142.259 26.5567 147.1 21.7485 147.1 15.6519C147.1 9.60404 141.998 4.747 136.245 4.747H116.389L115.836 4.19189ZM152.252 23.7209C152.252 12.6697 161.175 3.69189 172.178 3.69189C183.13 3.69189 192.01 12.6709 192.01 23.7209C192.01 34.7725 183.025 43.7498 172.075 43.7498H171.825V42.2466H172.075C182.169 42.2466 190.511 33.764 190.511 23.7209C190.511 13.7269 182.322 5.19511 172.178 5.19511C161.98 5.19511 153.751 13.4709 153.751 23.7209V23.9709H152.252V23.7209ZM152.753 23.4709C152.887 12.8083 161.537 4.19189 172.178 4.19189C182.849 4.19189 191.51 12.9422 191.51 23.7209C191.51 34.4135 182.884 43.1128 172.325 43.2482V42.7449C182.587 42.6064 191.011 33.9531 191.011 23.7209C191.011 13.4602 182.607 4.69511 172.178 4.69511C161.784 4.69511 153.385 13.063 153.253 23.4709H152.753ZM190.014 3.69189H191.669L209.738 42.2851L208.947 44.1077L190.014 3.69189ZM190.801 4.19189L208.929 42.8919L209.189 42.2929L191.351 4.19189H190.801ZM227.094 3.69189H228.747L219.281 24.1265H217.627L227.094 3.69189ZM227.413 4.19189L218.41 23.6265H218.961L227.965 4.19189H227.413ZM233.796 3.69189H235.502L223.536 29.4815H247.286L254.027 43.7498H252.319L246.391 31.0366H222.83L216.955 43.7498H215.249L233.796 3.69189ZM234.115 4.19189L216.032 43.2498H216.635L222.51 30.5366H246.71L252.637 43.2498H253.238L246.97 29.9815H222.752L234.719 4.19189H234.115ZM21.57 21.9401H23.6626L3.99474 42.1947H33.53V43.7498H0.409058L21.57 21.9401ZM21.7815 22.4401L1.59085 43.2498H33.03V42.6947H2.81229L22.4801 22.4401H21.7815Z" fill="black"/>
</svg>
