<?xml version="1.0" encoding="UTF-8"?> <svg xmlns="http://www.w3.org/2000/svg" width="433" height="246" viewBox="0 0 433 246" fill="none"> <path d="M202.17 52.968C198.082 46.1239 192.019 35.8808 184.991 35.6052C177.963 35.3296 178.285 42.1277 182.327 44.5163C186.369 46.9048 189.033 43.0005 186.737 40.7497C184.44 38.499 182.832 40.9335 183.797 42.0818C184.118 42.4493 183.613 42.7249 183.062 42.7708C182.327 42.8167 181.179 41.8981 181.087 40.4282C180.949 38.2234 181.959 36.3401 184.715 36.8454C187.471 37.3966 189.355 40.2904 189.584 42.9086C189.86 45.4809 189.125 54.7594 192.524 57.3317C195.923 59.904 191.973 52.6924 191.743 50.6714C191.514 48.7881 191.284 46.8589 192.019 45.1134C192.846 43.1383 195.005 43.3679 195.877 48.7421C196.75 54.1164 196.796 62.1088 202.308 69.0447C206.947 74.8324 205.202 68.4476 203.916 67.1615C202.584 65.8753 201.941 63.3031 201.986 62.2007C202.078 59.7662 206.258 59.8121 202.17 52.968Z" fill="#141414"></path> <path d="M217.007 65.2323C214.71 60.8686 211.449 52.7843 208.279 53.1059C205.11 53.4274 206.534 58.7097 208.922 58.9394C211.265 59.1691 209.428 57.7451 209.795 56.7346C210.025 56.0915 212.322 57.2399 212.322 59.2609C212.322 61.282 210.898 61.8791 209.014 60.5471C207.728 59.6743 205.799 58.2504 205.064 50.212C204.605 45.2512 203.916 36.2942 201.114 33.5841C198.312 30.8741 197.807 33.676 200.149 35.1918C203.686 37.5344 203.87 43.322 204.191 47.8235C204.559 52.325 203.778 60.7308 207.866 62.8897C212.367 65.3241 213.194 59.8121 213.194 59.8121C213.194 59.8121 213.837 61.7414 212.965 63.6246C212.322 65.0026 212.919 66.3806 214.894 67.3452C218.706 69.2744 218.844 68.6773 217.007 65.2323Z" fill="#141414"></path> <path d="M208.739 51.6819C207.269 51.59 206.901 52.5546 206.58 53.3354C206.258 54.1163 205.845 53.2895 206.029 51.6359C206.258 49.7526 206.029 42.587 204.375 37.8099C204.375 37.8099 207.958 42.4492 208.877 45.1133C209.795 47.7775 209.428 48.788 208.555 48.788C207.636 48.788 206.993 47.6856 208.004 46.9966C209.014 46.3076 208.693 45.9861 207.912 45.9861C207.131 45.9861 206.304 48.6502 208.142 49.2474C210.392 49.9823 210.071 50.4876 210.76 51.8196C211.357 53.2436 210.209 51.8197 208.739 51.6819Z" fill="#141414"></path> <path d="M202.997 50.9469C202.997 50.9469 203.41 40.0607 201.389 37.3966C199.368 34.7324 197.715 35.7889 197.577 37.3966C197.439 39.0042 199.001 40.566 199.598 39.9229C200.746 38.7286 198.725 37.9018 199.506 37.9478C201.114 37.9937 202.721 43.1382 200.195 43.0464C197.715 42.9545 196.153 37.764 196.383 36.5238C196.612 35.2836 196.842 30.0472 191.284 28.4395C185.772 26.8319 180.214 25.7294 179.755 21.917C179.295 18.1045 181.776 13.8786 186.277 16.8643C191.514 20.3552 186.691 24.0299 184.807 22.1007C182.051 19.3447 184.026 17.737 185.634 18.9772C187.196 20.2174 184.164 20.0796 185.405 21.228C186.645 22.3763 187.977 20.3093 187.104 19.115C186.231 17.8748 184.348 17.094 182.97 18.6557C181.592 20.2174 183.108 22.8356 184.302 23.7084C185.542 24.5811 187.15 24.7189 189.401 23.4787C193.489 21.182 194.453 23.6165 194.821 24.4893C195.602 26.5103 196.153 32.4817 197.669 33.2625C199.139 34.0434 197.118 25.1323 194.086 21.6873C191.008 18.2423 185.496 14.3839 182.786 13.0518C180.076 11.7197 174.656 8.09101 174.518 5.6106C174.426 3.40579 178.055 8.55035 181.868 10.8011C182.373 11.0767 182.878 11.0767 182.281 10.3877C181.133 9.14747 179.341 7.03453 178.606 5.10533C177.458 2.21152 175.529 -0.406688 174.105 0.0526463C172.635 0.511981 171.762 6.34552 172.084 9.28526C172.819 16.7724 173.737 19.3906 173.14 20.6308C173.048 20.8605 174.472 21.1361 174.61 21.3658C174.61 21.3658 175.391 20.8146 174.932 19.5284C173.921 16.5428 173.691 14.0624 174.38 12.6844C175.483 10.4336 179.479 11.536 179.801 14.2461C180.122 16.9562 177.78 17.3236 177.091 17.0021C175.85 16.4509 176.677 14.7054 177.228 15.5782C177.412 15.8538 178.147 16.5887 178.377 15.67C178.606 14.7514 178.193 13.1896 176.585 13.0978C174.978 13.0059 174.564 16.0834 175.85 18.2423C177.734 21.3658 176.585 22.4223 176.585 22.4223L184.761 27.6587C184.761 27.6587 189.814 27.6127 192.754 29.7257C195.694 31.8386 196.015 33.8597 195.556 35.4214C195.096 36.9832 191.697 34.8702 191.835 33.0788C191.973 31.2874 193.535 32.2061 193.902 33.1707C194.224 34.1812 194.959 33.2625 194.132 31.8845C193.397 30.6443 191.973 29.496 188.712 29.1285C186.369 28.8529 187.701 30.1391 187.701 30.1391C187.701 30.1391 194.545 36.8454 197.072 41.0253C199.552 45.2053 200.792 46.9967 200.792 46.9967L202.997 50.9469Z" fill="#141414"></path> <path d="M152.241 42.633C152.241 42.633 150.036 39.2798 151.919 39.4636C153.802 39.6473 158.028 52.7843 172.911 60.8226C187.839 68.9069 184.716 54.6216 180.536 55.5862C177.412 56.3212 178.423 59.4906 179.433 59.6284C180.444 59.8121 181.546 58.6178 180.214 58.0666C178.836 57.5614 180.398 55.5403 181.546 56.7346C182.74 57.9289 182.74 61.0983 179.525 61.0983C176.31 61.0983 175.988 57.5155 176.861 56.0456C177.963 54.2082 179.433 53.014 182.603 54.346C184.899 55.3106 186.323 59.904 186.323 62.7519C186.323 65.5997 187.058 69.3204 190.962 68.4476C194.867 67.6208 188.161 63.0734 188.023 58.8475C187.839 54.6216 191.881 56.7346 194.04 61.8332C194.04 61.8332 195.556 68.3098 200.379 71.4333C204.788 74.2812 212.046 77.0372 210.163 78.1855C208.279 79.3798 204.421 74.1893 193.719 74.8324C188.987 75.108 189.86 70.6984 191.973 70.974C194.499 71.2955 192.019 72.4898 192.34 72.8113C192.662 73.1788 193.535 74.0056 194.729 73.1328C195.923 72.306 194.637 69.3204 191.514 70.0553C187.563 70.928 186.002 71.617 182.74 69.9175C178.974 67.9423 174.472 65.5079 172.865 64.2677C169.833 62.0629 157.799 52.0953 152.241 42.633Z" fill="#141414"></path> <path d="M178.744 30.8281C179.571 29.1745 179.387 28.807 180.214 28.9448C181.041 29.1285 180.949 31.1955 179.892 32.2979C176.677 35.7889 169.833 35.3755 168.639 34.5946C168.639 34.6405 176.585 35.1917 178.744 30.8281Z" fill="#141414"></path> <path d="M264.226 101.658C257.658 99.5905 253.156 104.138 256.877 107.17C260.598 110.201 264.823 111.349 265.88 109.237C266.982 107.032 264.548 105.883 263.675 107.032C263.17 107.675 263.629 108.869 260.735 107.996C257.842 107.17 261.976 102.484 266.339 104.505C269.83 106.113 267.074 110.844 266.799 112.544C266.201 116.173 266.569 121.225 269.417 123.063C271.346 124.303 269.692 122.511 269.279 121.685C268.728 120.582 267.35 117.78 268.36 113.922C269.371 110.063 272.908 112.13 274.607 113.784C276.307 115.483 277.134 119.801 274.424 120.444C271.713 121.133 270.473 119.388 270.933 118.102C271.759 115.805 271.713 116.77 272.265 118.285C272.77 119.801 275.939 117.734 274.745 115.897C273.551 114.06 271.438 114.014 270.152 114.84C268.682 115.805 268.728 119.158 270.29 120.766C272.035 122.557 275.572 120.582 277.088 122.925C278.604 125.267 277.593 128.804 277.593 128.804C277.593 128.804 280.625 123.568 278.925 119.709C277.409 115.943 273.689 110.523 273.689 110.523C273.689 110.523 269.049 103.173 264.226 101.658Z" fill="#141414"></path> <path d="M257.796 111.074C249.987 105.7 243.189 101.52 243.924 109.65C244.108 111.487 244.521 113.6 246.726 115.759C254.672 123.66 237.447 135.511 237.447 135.511C237.447 135.511 239.055 138.956 245.486 134.822C247.598 133.444 251.824 129.585 250.814 123.2C249.803 116.816 248.012 114.932 247.185 113.049C244.842 107.675 247.782 107.261 250.079 109.466C254.443 113.6 250.125 120.582 254.397 124.211C260.827 129.677 263.583 124.303 261.884 120.444C260.184 116.54 256.831 118.194 256.831 120.398C256.831 121.776 257.933 121.639 258.806 121.363C259.311 121.225 259.311 120.674 260.184 121.363C261.103 122.098 261.333 123.889 258.301 123.889C255.269 123.889 253.57 120.169 256.923 117.505C260.322 114.795 264.548 120.031 264.548 122.557C264.548 125.084 263.721 126.508 259.771 128.207C237.217 137.807 243.005 148.969 244.521 151.495C245.44 153.057 244.796 147.453 246.634 142.952C247.828 140.058 248.747 134.913 263.813 127.151C269.692 124.027 265.329 116.218 257.796 111.074Z" fill="#141414"></path> <path d="M275.664 131.33C275.985 130.458 277.226 127.885 276.445 125.543C275.664 123.2 273.597 123.66 272.678 124.119C271.759 124.578 271.576 126.921 273 127.242C274.424 127.564 273.964 125.818 273.137 125.359C272.357 124.9 273.321 124.44 274.424 125.221C275.526 126.002 275.204 128.666 273.459 128.804C271.759 128.942 268.59 127.702 267.488 126.783C266.385 125.864 265.88 128.62 267.258 130.32C271.3 135.464 275.296 132.203 275.664 131.33Z" fill="#141414"></path> <path d="M270.703 135.373C268.131 136.567 261.241 137.623 258.577 135.005C257.015 133.444 260.506 131.882 263.308 134.133C266.202 136.521 266.339 131.882 263.124 131.055C259.909 130.228 257.428 132.341 256.372 133.26C254.213 135.097 249.16 140.196 247.828 144.513C246.542 148.693 246.588 154.343 249.114 154.986C251.641 155.675 255.867 153.149 253.708 148.418C251.503 143.687 249.528 150.669 251.733 150.071C253.478 149.612 253.432 150.393 253.019 151.955C252.513 154.022 250.4 154.94 249.666 152.46C249.068 150.439 248.563 147.775 250.171 145.157C253.386 139.92 257.75 140.15 259.771 139.461C261.562 138.864 270.06 137.899 273.459 134.776C273.918 134.408 273.781 133.949 270.703 135.373Z" fill="#141414"></path> <path d="M248.104 78.8286C246.404 78.7826 242.729 79.242 240.708 82.9626C238.733 86.5454 240.387 79.4257 234.875 77.9099C226.469 75.6592 218.66 82.3655 210.76 74.8783C203.916 68.4476 207.269 62.2925 212.689 70.7902C216.869 77.3587 218.247 74.4649 224.218 75.8429C227.801 76.6697 223.437 73.5922 219.992 73.1788C216.547 72.7654 214.618 70.3768 215.491 69.4122C216.364 68.4476 219.212 70.3768 218.385 71.0658C217.604 71.7089 221.049 72.4898 223.483 72.8113C225.918 73.0869 230.741 76.7615 238.366 77.0371C242.729 77.175 245.991 77.9558 247.69 78.4611C248.563 78.6908 248.701 78.8286 248.104 78.8286Z" fill="#141414"></path> <path d="M191.606 24.3515C190.687 24.7649 189.539 24.9946 187.518 25.0864C183.797 25.2702 182.511 23.6166 181.914 21.8711C181.316 20.1256 180.949 21.274 180.995 21.963C181.041 23.0194 182.097 24.719 184.486 25.6836C186.874 26.6482 189.585 25.9592 192.57 27.7506C194.178 28.7152 194.224 28.853 194.224 28.853C194.224 28.853 196.153 22.3304 191.606 24.3515Z" fill="#141414"></path> <path d="M143.697 10.847C145.718 9.74462 150.817 9.28528 154.767 15.8997C154.905 16.1753 155.088 16.4509 155.18 16.7725C155.18 16.7725 156.512 19.6662 157.247 21.1821V21.228C159.222 24.7189 162.53 29.8175 166.204 31.1955C169.052 32.252 172.176 32.1601 174.426 31.3333C177.78 29.8635 177.458 27.429 177.32 26.7859C175.942 23.3869 173.508 22.2845 170.614 22.2845C163.494 22.2845 163.816 25.4998 165.745 27.3371C167.674 29.1286 171.119 29.4042 172.865 28.3936C174.289 27.5668 173.232 25.3161 171.67 25.4998C169.971 25.7295 171.027 27.4749 170.522 27.6587C167.95 28.5314 165.148 25.8673 169.603 23.8003C174.105 21.7333 178.515 28.7151 173.048 30.5065C170.384 31.3793 165.01 30.5984 162.484 26.1429C160.555 22.7438 158.763 16.7725 150.725 9.88243C145.994 5.84028 141.446 8.22882 141.217 9.79056C141.125 11.3523 141.676 11.9494 143.697 10.847ZM142.686 2.76273C145.442 2.02779 149.806 7.44793 149.806 7.44793C149.806 7.44793 154.997 13.0059 173.967 22.1007C185.91 27.8424 193.259 38.1315 193.259 38.1315C186.415 32.252 182.557 33.63 180.168 35.008C177.137 36.7535 176.034 42.6789 181.087 45.6646C185.542 48.2828 187.839 45.9861 187.839 45.9861C189.263 44.9756 188.895 49.2474 185.129 49.2474C181.362 49.2474 179.158 45.8943 180.627 48.7421C182.327 51.9575 187.058 52.9221 184.394 53.1517C181.316 53.4273 175.942 47.0885 175.115 43.5057C174.335 40.1985 174.197 36.5698 178.147 34.9162C180.49 33.9516 182.419 31.563 182.327 29.7257C182.235 27.8883 179.204 25.8673 178.836 28.0721C177.826 34.6865 168.134 33.4922 164.826 32.298C161.519 31.1037 160.279 29.2204 160.095 30.1391C160.095 31.3334 161.381 33.1248 166.893 36.0186C174.84 40.1526 171.533 47.2723 166.296 46.078C159.039 44.4703 156.466 38.8205 162.116 38.2693C167.812 37.7181 167.445 40.7497 167.353 41.1631C167.077 42.4493 165.699 42.633 165.24 42.4033C164.78 42.1737 164.826 41.0712 165.653 41.1631C165.745 41.1631 164.459 40.1985 163.586 41.0712C162.805 41.898 163.632 43.6435 167.077 44.011C170.568 44.4244 172.268 39.7392 166.664 37.9478C161.427 36.2482 156.88 34.8243 156.007 26.3266C155.961 26.051 155.64 24.0299 155.502 23.2031C154.721 18.1505 152.516 12.7762 148.979 11.6738C144.707 10.3417 142.181 14.0164 143.513 16.5428C144.845 19.0691 148.612 20.1715 149.622 18.472C150.633 16.7265 150.174 14.4298 148.336 13.9246C146.499 13.4193 145.58 15.7619 147.096 15.4404C148.612 15.1188 150.357 17.8748 147.509 17.6452C144.662 17.4614 144.753 12.4547 148.933 13.3734C153.159 14.292 153.021 23.6165 145.213 20.0796C137.542 16.5887 139.884 3.49766 142.686 2.76273Z" fill="#141414"></path> <path d="M140.941 20.0337C142.595 27.1993 146.729 28.807 148.336 28.5314C150.219 28.2098 151.735 26.1888 150.036 24.3055C148.336 22.4681 145.305 23.1112 145.81 24.8108C146.315 26.5103 147.326 25.4998 147.326 25.4998C147.326 25.4998 148.107 23.6165 149.025 25.4998C149.622 26.694 147.326 28.2098 145.488 26.694C142.962 24.673 144.386 21.4117 144.386 21.4117C145.167 21.9629 147.509 22.9734 150.403 21.8251C153.297 20.6308 153.067 17.048 153.297 19.3447C153.389 20.3093 153.481 21.5495 153.481 23.0194C153.481 25.8213 153.802 27.7046 154.17 29.1745C154.17 29.1745 155.732 32.941 156.466 35.3755C157.018 37.1209 157.431 39.0501 157.799 40.3822C159.131 44.6081 161.749 49.7067 169.374 52.5086C170.981 53.1058 173.921 53.3355 174.335 50.5335C174.61 48.3746 171.808 47.1803 171.073 48.3287C170.338 49.477 171.624 50.5335 171.624 50.5335C171.624 50.5335 171.211 48.834 172.543 49.7526C173.829 50.6713 172.635 53.7948 170.109 50.4416C167.628 47.0885 171.533 44.8837 173.921 46.3076C179.893 49.7986 178.331 54.4838 173.416 55.4484C172.084 55.724 167.858 56.2752 163.54 52.0952C159.177 47.8694 157.89 44.1947 156.742 40.6578C156.283 39.2798 155.732 33.9515 153.389 31.0577C152.884 30.5065 152.332 29.9553 151.919 29.6797C150.587 28.8529 147.188 28.9907 147.326 32.206C147.509 35.4214 150.219 36.5697 151.414 36.2482C152.608 35.9267 152.424 34.2271 150.403 33.9056C148.382 33.5841 148.198 30.0472 151.781 31.7008C155.318 33.4003 154.17 42.8167 147.372 35.5592C140.665 28.5314 140.665 18.9313 140.941 20.0337Z" fill="#141414"></path> <path d="M208.647 104.459C209.933 101.566 218.017 100.142 216.915 109.191C216.134 115.897 210.989 117.045 207.59 117.596C199.506 117.734 195.418 110.569 193.351 111.763C192.846 112.039 193.581 114.243 195.326 116.264C197.164 118.377 194.775 118.653 191.881 115.392C190.273 113.554 185.359 104.689 196.061 92.6086C197.026 91.5062 199.736 88.888 200.517 86.9129C201.941 83.2382 200.792 78.0477 199.92 78.0937C198.909 78.1855 199.552 79.7473 199.506 81.9061C199.414 85.9942 194.867 90.4038 196.245 85.8105C198.036 79.7932 191.284 72.4898 202.676 78.0937C212.138 82.7789 221.003 79.8391 229.179 79.7932C234.737 79.7472 237.539 82.3195 240.341 85.8564C241.306 87.0966 242.041 87.2803 242.132 86.4535C242.224 85.5349 242.362 82.687 244.98 81.2171C253.845 76.2104 258.117 85.8564 256.51 86.5454C255.177 87.1425 256.234 84.1109 254.718 82.5951C252.743 80.62 249.528 80.4822 247.185 81.7683C244.797 83.1004 242.408 88.5665 247.369 89.3933C251.641 90.1282 253.891 87.3263 253.662 85.1215C253.386 82.9167 251.595 81.998 249.803 82.8707C249.068 83.2382 248.609 83.7894 248.333 84.3865C248.333 84.3865 248.333 84.3865 248.333 84.4325C248.012 85.8105 249.574 85.7186 249.665 85.7186C249.849 85.0755 250.171 84.5244 250.952 84.5244C252.376 84.5244 252.146 85.9483 251.595 86.7751C251.089 87.51 250.538 88.3828 248.655 88.245C248.471 88.245 248.287 88.199 248.104 88.199C248.012 88.199 247.966 88.199 247.874 88.1531H248.012C247.553 88.0153 247.185 87.7856 246.955 87.51C246.634 87.2804 246.358 86.821 246.45 86.0402C246.726 84.2487 247.828 81.9521 251.181 82.0439C254.534 82.1358 255.269 85.6727 254.902 87.6937C254.121 92.0574 248.471 91.5062 247.277 91.5981C244.98 91.4144 239.239 92.2871 237.539 88.0612C234.783 81.2171 228.398 84.1569 227.112 84.1569C225.872 84.1569 225.229 84.3865 223.208 82.4114C222.657 81.8602 220.452 80.8037 219.395 81.998C218.339 83.1923 218.89 84.3406 219.579 84.754C220.268 85.1674 221.83 85.1674 221.646 83.8354C221.462 82.5033 220.727 83.4219 220.727 83.4219C220.727 83.4219 221.141 84.754 219.992 84.1569C218.798 83.5597 219.533 81.3549 221.83 82.7329C224.126 84.1109 223.3 86.9129 221.784 86.9129C220.268 86.9129 219.074 85.6727 218.155 84.4325C217.236 83.1923 213.975 80.4822 208.968 82.1358C202.905 84.1569 203.87 85.2593 207.085 86.7292C208.05 87.1885 210.622 88.5205 212.551 88.1531C215.767 87.6019 215.078 84.7081 213.424 83.8813C211.724 83.0545 210.576 83.5138 210.117 83.6975C209.428 83.9731 208.785 84.4784 209.198 85.4889C209.611 86.4995 210.944 86.3158 210.209 85.8105C209.428 85.3052 210.025 84.065 211.541 84.9837C213.056 85.9024 212.367 87.1885 211.357 87.4641C210.346 87.6937 207.223 86.3158 207.958 84.2947C208.785 81.9061 211.724 81.5846 214.848 83.1463C217.007 84.2028 217.742 85.7645 220.268 89.7608C226.01 99.3149 230.236 100.969 231.476 100.739C235.15 100.05 233.681 95.1809 233.221 93.6192C232.349 90.7254 230.695 89.8067 229.179 89.4852C227.893 89.2096 225.504 89.0718 224.953 91.2306C224.402 93.3895 225.734 93.8948 226.974 93.9866C228.215 94.0785 225.091 91.4603 228.169 91.7359C229.317 91.8278 229.684 94.446 227.296 94.7675C226.837 94.8594 226.285 94.9053 225.596 94.7216C224.218 94.4 222.565 91.9656 222.519 89.623C222.427 85.9483 224.953 85.7646 229.593 87.0507C234.599 88.4287 241.581 103.173 248.104 100.647C250.171 99.8661 250.63 97.156 250.079 96.3292C249.528 95.5024 248.517 95.1809 247.644 95.6862C246.772 96.1915 247.093 97.156 247.461 97.0182C247.736 96.8804 247.874 95.7321 248.655 96.3292C249.436 96.8804 249.206 98.6719 247.644 98.6719C246.037 98.6719 244.291 95.7321 245.118 93.9407C245.899 92.1952 248.563 92.333 250.768 94.6756C252.192 96.1914 253.156 100.693 249.068 102.944C244.98 105.194 238.044 105.286 235.564 104.781C231.751 103.954 227.434 102.392 227.434 102.392C227.434 102.392 225.504 101.979 226.515 105.929C227.985 111.625 236.207 115.392 237.217 111.395C237.309 110.936 235.15 110.523 235.242 109.145C235.472 105.746 239.973 106.343 240.892 108.777C242.592 113.049 238.871 116.494 233.681 115.805C228.536 115.116 223.667 107.445 222.84 100.325C222.014 93.1598 214.664 88.3828 209.382 89.1177C209.06 89.1636 208.739 89.2096 208.417 89.3014C205.937 90.0823 198.358 92.8842 197.301 100.555C196.98 102.898 197.393 105.378 197.944 106.618C198.496 107.95 200.287 110.293 203.962 110.706C204.743 110.798 205.064 111.717 202.905 111.579C202.905 111.579 198.771 111.028 196.75 107.675C195.694 105.883 193.856 101.06 196.383 95.9158C196.566 95.5484 196.52 95.2728 196.245 95.5024C195.005 96.8345 193.994 98.3503 193.443 100.096C192.57 102.898 192.662 105.975 194.729 109.558C197.301 113.417 210.852 118.515 213.011 110.523C213.332 109.328 213.332 106.297 211.173 106.848C210.255 107.078 211.035 108.272 210.255 108.548C208.279 109.007 207.453 107.124 208.647 104.459Z" fill="#141414"></path> <path d="M203.502 98.3044C201.941 99.3608 203.364 102.025 203.364 102.025C203.364 102.025 204.651 102.255 204.972 103.357C205.477 105.103 203.181 106.94 201.435 104.689C199.598 102.392 200.333 99.1312 200.838 97.7072C201.757 95.0431 205.386 91.0928 211.862 92.333C219.349 93.757 220.13 99.3608 220.544 103.311C221.003 107.261 221.003 124.027 228.949 127.977C236.896 131.928 239.698 126.829 239.101 124.303C238.549 121.776 236.712 122.649 236.161 124.532C235.61 126.416 233.864 127.013 232.946 126.094C232.027 125.175 233.681 122.19 236.161 121.593C238.641 120.95 240.846 122.787 241.26 125.819C241.627 128.391 240.433 130.963 236.161 133.535C232.44 135.786 225.872 133.719 223.07 129.769C220.038 125.497 220.084 116.907 218.982 104.276C218.339 97.0642 210.392 93.6192 203.502 98.3044Z" fill="#141414"></path> <path d="M253.57 95.5942C252.973 92.7923 254.305 88.6583 259.679 88.7961C262.94 88.8879 265.237 94.2162 265.237 94.2162C265.237 94.2162 270.198 102.576 269.83 103.403C269.509 104.23 268.912 101.428 263.629 99.3608C261.792 98.6258 265.513 95.4564 262.113 90.8171C260.506 88.6583 257.015 88.8879 256.418 92.3789C255.821 95.8239 257.704 97.0641 259.036 96.8804C260.368 96.6966 261.195 96.0995 261.195 94.7674C261.195 93.4354 260.276 93.7569 259.449 94.0784C258.577 94.4 257.842 93.8488 258.209 92.6086C258.393 92.0574 262.022 90.3119 262.343 93.4354C263.17 101.382 254.718 102.025 253.57 95.5942Z" fill="#141414"></path> <path d="M63.4512 237.666C64.5076 237.666 64.8292 236.932 64.8292 236.151C64.8292 235.416 64.5076 234.635 63.4512 234.635H62.7162V237.666H63.4512V237.666ZM59.7765 231.741H64.1402C67.677 231.741 67.8148 235.094 67.8148 235.691C67.8148 238.172 66.5746 239.228 65.61 239.642L68.5498 244.924H64.967L62.7162 240.56V244.924H59.7765V231.741Z" fill="#141414"></path> <path d="M81.549 231.741V244.924H87.8878V241.755H84.5347V239.642H87.5663V236.748H84.5347V234.91H87.8878V231.741H81.549Z" fill="#141414"></path> <path d="M107.134 235.416C106.629 234.865 105.986 234.267 105.205 234.267C104.332 234.267 104.102 234.91 104.102 235.416C104.102 236.197 104.837 236.426 105.342 236.564C106.904 237.023 108.65 237.85 108.65 240.974C108.65 243.592 107.134 245.291 104.699 245.291C103.321 245.291 102.265 244.74 100.749 243.178L102.173 240.377C103 241.387 103.919 242.122 104.791 242.122C105.342 242.122 105.848 241.8 105.848 241.02C105.848 239.825 104.929 239.642 103.827 239.228C103 238.907 101.3 238.172 101.3 235.324C101.3 233.211 102.541 231.374 105.021 231.374C106.675 231.374 107.823 232.292 108.236 232.66L107.134 235.416Z" fill="#141414"></path> <path d="M121.235 231.741V234.91H123.578V244.924H126.518V234.91H128.86V231.741H121.235Z" fill="#141414"></path> <path d="M146.499 234.91L147.693 239.779H145.259L146.499 234.91ZM144.707 231.741L140.941 244.878H144.11L144.707 242.627H148.29L148.887 244.878H152.057L148.29 231.741H144.707Z" fill="#141414"></path> <path d="M164.872 239.596V231.741H167.812V239.504C167.812 240.331 167.95 242.122 169.512 242.122C171.073 242.122 171.211 240.331 171.211 239.504V231.741H174.151V239.596C174.151 241.02 173.921 245.291 169.512 245.291C165.102 245.291 164.872 241.02 164.872 239.596Z" fill="#141414"></path> <path d="M191.697 237.666C192.754 237.666 193.075 236.932 193.075 236.151C193.075 235.416 192.754 234.635 191.697 234.635H190.962V237.666H191.697V237.666ZM188.023 231.741H192.386C195.923 231.741 196.061 235.094 196.061 235.691C196.061 238.172 194.821 239.228 193.856 239.642L196.796 244.924H193.213L190.962 240.56V244.924H188.023V231.741V231.741Z" fill="#141414"></path> <path d="M214.297 234.91L215.491 239.779H213.056L214.297 234.91ZM212.505 231.741L208.739 244.878H211.908L212.505 242.627H216.088L216.685 244.878H219.855L216.088 231.741H212.505Z" fill="#141414"></path> <path d="M239.79 231.741V239.504L235.885 231.741H232.808V244.924H235.656V237.023L239.56 244.924H242.638V231.741H239.79Z" fill="#141414"></path> <path d="M255.775 231.741V234.91H258.071V244.924H261.057V234.91H263.354V231.741H255.775Z" fill="#141414"></path> <path d="M297.207 235.002C297.207 234.175 296.747 233.808 296.334 233.808C295.966 233.808 295.461 234.084 295.461 235.14C295.461 235.783 295.829 236.426 296.242 236.886C296.655 236.472 297.207 235.783 297.207 235.002ZM295.323 239.596C294.726 240.009 294.267 240.56 294.267 241.433C294.267 241.8 294.405 242.765 295.415 242.765C295.92 242.765 296.334 242.535 296.885 241.846L295.323 239.596ZM298.309 243.638C297.344 244.74 296.518 245.245 295.185 245.245C292.751 245.245 291.649 243.5 291.649 241.571C291.649 240.514 291.97 238.861 294.129 237.804C293.486 236.931 293.21 236.334 293.21 235.186C293.21 233.257 294.267 231.374 296.242 231.374C298.125 231.374 299.274 232.889 299.274 235.002C299.274 236.564 298.63 237.391 297.39 238.31L298.63 240.009L300.1 238.126L301.616 240.055L300.146 241.8L302.351 244.786H299.274L298.309 243.638Z" fill="#141414"></path> <path d="M335.285 242.26C335.745 242.26 336.847 242.26 336.847 240.882C336.847 239.55 335.745 239.55 335.285 239.55H333.907V242.26H335.285ZM335.148 236.932C336.296 236.932 336.526 236.197 336.526 235.691C336.526 235.002 336.158 234.359 335.148 234.359H333.907V236.932H335.148ZM336.066 231.741C338.914 231.741 339.236 234.084 339.236 235.094C339.236 236.472 338.455 237.483 337.582 237.85V237.896C338.271 238.126 339.833 238.861 339.833 241.249C339.833 243.087 338.822 244.924 336.388 244.924H330.968V231.787H336.066V231.741Z" fill="#141414"></path> <path d="M357.747 234.91L358.941 239.779H356.553L357.747 234.91ZM355.955 231.741L352.189 244.878H355.358L355.955 242.627H359.538L360.135 244.878H363.305L359.538 231.741H355.955Z" fill="#141414"></path> <path d="M379.933 237.666C380.989 237.666 381.311 236.932 381.311 236.151C381.311 235.416 380.989 234.635 379.933 234.635H379.198V237.666H379.933V237.666ZM376.258 231.741H380.622C384.159 231.741 384.296 235.094 384.296 235.691C384.296 238.172 383.056 239.228 382.092 239.642L385.031 244.924H381.449L379.198 240.56V244.924H376.258V231.741Z" fill="#141414"></path> <path d="M392.013 184.016C393.116 184.016 394.126 183.281 394.494 182.179L395.872 177.586C396.285 176.253 395.688 174.692 394.126 174.416C392.702 174.186 391.324 174.784 390.911 176.116L389.533 180.663C389.165 182.087 389.763 184.062 392.013 184.016Z" fill="#141414"></path> <path d="M124.589 184.016C125.691 184.016 126.702 183.281 127.069 182.179L128.447 177.586C128.86 176.253 128.401 174.692 126.747 174.416C125.369 174.14 123.946 174.784 123.532 176.116L122.062 180.801C121.603 182.225 122.062 184.016 124.589 184.016Z" fill="#141414"></path> <path d="M353.889 206.753H349.157C347.917 206.753 348.285 205.835 348.285 205.835L348.468 205.329L359.86 194.857C359.86 194.811 361.651 193.111 363.121 193.662C363.856 193.938 362.8 196.235 362.524 196.878L362.432 197.061C362.34 197.245 360.962 199.955 360.503 200.874C359.125 202.252 355.772 205.146 353.889 206.753ZM309.149 205.329L320.587 194.857C320.587 194.857 322.378 193.065 323.986 193.708C324.399 194.076 324.17 194.535 323.251 196.832L323.067 197.291C322.838 197.888 322.194 199.358 321.322 201.149C320.081 202.206 316.269 205.375 314.661 206.707H309.471C308.506 206.707 308.966 205.835 308.966 205.835L309.149 205.329ZM270.427 206.57C270.795 205.283 272.173 200.644 273.275 197.015C273.735 195.5 274.745 195.178 275.756 195.178H275.802H282.186C279.568 197.888 271.208 206.294 270.427 206.57ZM430.092 206.753H414.75C413.878 206.753 413.878 205.789 414.107 205.146L417.369 194.719H421.181C422.605 194.719 423.524 193.57 423.753 192.146C424.029 190.401 422.605 189.574 421.181 189.574H418.976L421.227 182.5C421.64 181.168 421.181 179.515 419.527 179.285C418.104 179.101 416.726 179.607 416.312 180.985L413.602 189.574H410.616C409.192 189.574 408.136 190.539 408.044 192.146C407.952 193.57 409.192 194.719 410.616 194.719H411.994L409.284 203.4C409.238 203.538 408.963 204.273 408.917 204.365C407.86 206.753 405.564 206.799 405.288 206.799H388.063C387.007 206.799 387.19 205.835 387.42 205.192L391.646 191.733C392.059 190.401 391.6 188.701 389.946 188.518C388.339 188.38 387.144 188.839 386.731 190.217C386.731 190.217 382.505 203.951 382.184 204.87V204.916C381.449 206.983 378.968 206.845 378.876 206.845H361.743C362.891 205.835 363.948 204.824 364.545 204.181C365.004 203.63 367.117 199.312 367.117 199.312L367.255 198.991C368.036 197.199 369.184 194.535 368.174 192.009C367.806 191.09 366.98 189.85 365.188 189.069C361.33 187.415 357.701 189.804 356.277 191.366L351.73 195.5L357.563 177.769C358.023 176.437 357.609 174.83 355.91 174.554C354.532 174.324 353.108 174.83 352.648 176.208L343.553 203.951C342.635 206.799 338.409 206.891 338.363 206.891H322.654C325.502 204.503 325.548 204.365 325.777 203.951C326.42 202.619 327.523 200.185 327.89 199.22L328.028 198.899C330.554 192.652 328.258 190.125 325.869 189.115C322.011 187.461 318.382 189.85 316.958 191.412L312.411 195.546L318.244 177.815C318.703 176.483 318.428 174.875 316.591 174.6C315.213 174.37 313.789 174.875 313.329 176.253L304.143 204.273C303.316 207.075 298.768 206.937 298.585 206.937H286.963C286.826 206.937 285.54 206.937 286.366 204.273L289.49 193.846C289.49 193.8 289.49 193.754 289.49 193.754C289.719 193.157 289.719 192.422 289.444 191.825C289.03 190.906 288.112 190.355 287.101 190.355C287.101 190.355 275.664 190.355 275.572 190.355C272.862 190.355 269.555 191.779 268.36 195.821C267.396 199.036 266.202 203.033 265.696 204.778C264.869 206.983 262.343 206.983 261.93 206.983C261.93 206.983 249.528 206.983 246.312 206.983C245.21 206.983 245.026 205.881 245.256 205.192C245.531 204.135 247.231 198.577 247.231 198.577C247.874 196.418 247.093 195.04 246.588 194.397C245.072 192.56 242.5 192.652 242.178 192.698C242.178 192.698 241.076 192.698 239.698 192.698C242.132 191.687 244.613 190.768 247.874 189.436C248.196 189.299 256.464 186.129 256.234 179.147C256.188 177.126 255.591 175.381 254.259 174.095C251.595 171.476 247.323 171.568 246.955 171.568H209.152C207.728 171.568 206.58 172.717 206.58 174.141C206.58 175.564 207.728 176.713 209.152 176.713H247.001C247.874 176.667 250.584 176.897 251.089 179.055C251.87 182.592 246.083 184.659 246.037 184.659C232.578 189.896 231.66 190.631 231.338 190.906C230.098 191.871 229.593 193.524 230.052 194.994C230.557 196.602 231.981 197.613 234.002 197.75C234.324 197.75 240.341 197.75 241.122 197.75C242.086 197.75 241.903 198.531 241.903 198.531C241.397 200.231 240.617 202.757 240.341 203.722C240.203 204.089 239.193 207.304 240.984 209.785C241.765 210.841 243.327 212.128 246.358 212.128C249.574 212.128 261.838 212.128 261.838 212.128C263.308 212.173 264.869 211.944 266.615 211.025C267.396 211.714 268.406 212.128 269.601 212.128C273.092 212.128 274.653 210.382 277.226 207.902C277.226 207.902 279.936 205.054 281.406 203.4C281.038 204.778 280.165 207.81 281.773 210.015C282.462 210.979 284.116 212.082 286.504 212.082H298.079C298.263 212.082 298.493 212.082 298.722 212.082C300.1 212.082 301.8 211.852 303.454 211.301C303.913 211.76 304.556 212.082 305.199 212.082H338.409C339.603 212.082 341.165 211.852 342.727 211.255C343.186 211.714 343.829 212.082 344.518 212.082H378.922C380.208 212.082 382.138 211.714 383.837 210.704C384.71 211.438 386.042 212.082 388.109 212.082H405.334C406.666 212.082 408.595 211.668 410.387 210.566C411.259 211.347 412.637 212.082 414.842 212.082H430.184C431.608 212.082 432.802 210.933 432.986 209.509C433.17 207.488 431.516 206.753 430.092 206.753Z" fill="#141414"></path> <path d="M231.751 182.454C232.165 181.076 231.797 179.561 229.96 179.285C228.582 179.101 227.158 179.698 226.791 181.031C226.791 181.031 220.038 204.594 220.038 204.64C219.625 206.478 218.385 206.707 217.328 206.707H176.31C173.875 206.707 174.426 205.375 174.426 205.283V205.237C174.426 205.237 175.253 202.252 176.585 197.521C177.458 194.397 180.03 194.305 180.627 194.305H184.761C185.68 194.305 185.037 194.948 185.037 194.948L178.79 199.817C178.79 199.817 177.32 201.425 178.469 202.987C179.893 204.962 181.959 203.859 181.959 203.859L188.758 198.531C191.606 196.326 192.662 194.167 191.973 192.146C190.917 189.161 188.206 189.161 186.645 189.161H180.765C177.78 189.161 173.278 190.309 171.624 196.097C170.43 200.323 169.649 203.125 169.466 203.768C169.42 203.859 169.374 203.951 169.374 204.089C168.593 206.524 166.756 206.707 166.388 206.753H148.29C147.509 206.753 147.418 205.789 147.647 205.146L150.908 194.719H154.721C156.145 194.719 157.109 193.57 157.293 192.146C157.569 190.217 156.145 189.574 154.721 189.574H152.516L154.767 182.5C155.18 181.168 154.813 179.653 153.067 179.285C151.689 179.009 150.265 179.607 149.852 180.985L147.142 189.574H144.156C142.732 189.574 141.86 190.722 141.584 192.146C141.262 193.846 142.732 194.719 144.156 194.719H145.534C145.534 194.719 142.64 203.859 142.503 204.227C142.503 204.227 142.503 204.273 142.457 204.273C141.538 206.799 139.471 206.845 138.92 206.753C138.828 206.753 120.455 206.753 120.455 206.753C119.582 206.753 119.582 205.789 119.812 205.146L124.037 191.687C124.451 190.355 124.267 188.61 122.338 188.472C120.914 188.38 119.536 188.793 119.123 190.171C119.123 190.171 114.805 203.859 114.667 204.273C113.794 206.707 111.819 206.799 110.946 206.707H95.972C95.0993 206.707 95.0993 206.156 95.1912 205.926L97.5338 199.082C98.4525 196.326 99.5549 192.973 98.5443 191.182C98.0391 190.263 97.2122 189.574 96.1558 189.344C92.7108 188.564 89.5873 191.871 89.082 192.514L82.5135 199.634L89.7251 174.646C89.9548 173.865 89.8169 173.038 89.3117 172.395C88.8064 171.752 88.0715 171.384 87.2447 171.384H70.433C66.1612 171.384 63.4511 174.37 62.5784 175.978L45.583 203.905C45.1696 204.686 43.516 207.121 43.0108 206.615C42.7811 206.386 43.0108 205.559 43.1486 205.1L49.3955 183.511C49.9008 181.444 51.3247 176.299 50.0386 173.819C49.4874 172.762 48.6146 171.982 47.5122 171.614C42.6892 170.052 38.7849 176.759 38.1418 177.999L23.3512 203.308C22.4785 204.87 21.1924 207.029 20.5034 206.753C20.2278 206.707 20.3656 205.881 20.5493 205.375C20.5952 205.237 24.4996 192.789 26.7503 184.613C28.0364 179.974 27.669 176.391 25.602 174.049C22.9838 171.017 18.9416 171.384 18.7579 171.384H2.5893C1.16536 171.384 0.200768 172.533 0.0170346 173.957C-0.166699 175.656 1.16536 176.529 2.5893 176.529H19.0335C19.0335 176.529 20.8249 176.391 21.6517 177.402C22.4785 178.366 22.5244 180.479 21.7436 183.281C19.4928 191.366 15.6344 203.768 15.6344 203.813C15.4507 204.319 14.7157 207.075 15.8641 209.28C16.3234 210.152 17.334 211.301 19.2632 211.76C23.8106 212.816 27.2096 207.029 27.8068 205.926L42.6892 180.571C43.516 179.055 45.0778 176.621 45.583 176.805C46.0883 176.805 45.2615 180.158 44.5725 182.041L38.2796 203.768C38.004 204.732 37.2231 208.039 38.8767 210.198C39.7035 211.255 40.9437 211.898 42.3677 211.898C47.3285 212.036 49.9926 206.845 50.1764 206.432L67.1718 178.55C67.1718 178.55 68.3201 176.575 70.5708 176.575H83.9834L74.7048 208.682C74.3833 209.831 74.5671 211.898 77.1853 211.944C77.8743 211.944 78.5633 211.668 79.0685 211.117L93.0782 196.005C93.216 195.821 93.3998 195.637 93.5835 195.5C93.3998 196.097 93.1701 196.74 92.8945 197.337L90.506 204.227C90.2763 204.732 89.3576 207.442 90.8275 209.693C91.4706 210.658 92.8026 211.852 95.4209 211.898H110.763C112.141 212.036 114.254 211.76 116.183 210.566C117.055 211.347 118.388 211.99 120.546 211.99H138.552C138.736 211.99 138.966 212.036 139.149 212.036C140.482 212.036 142.319 211.668 143.927 210.566C144.799 211.347 146.131 211.99 148.29 211.99H166.388H166.434C167.628 211.99 169.512 211.53 171.211 210.244C172.681 211.393 173.921 211.944 176.815 211.944H217.65C220.957 211.944 223.713 211.117 224.815 206.845L231.751 182.454Z" fill="#141414"></path> </svg> 